<?xml version="1.0" encoding="utf-8"?>
<!-- Generator: Adobe Illustrator 24.0.1, SVG Export Plug-In . SVG Version: 6.00 Build 0)  -->
<svg version="1.1" id="Layer_1" xmlns="http://www.w3.org/2000/svg" xmlns:xlink="http://www.w3.org/1999/xlink" x="0px" y="0px"
	 viewBox="0 0 2559 618" style="enable-background:new 0 0 2559 618;" xml:space="preserve">
<style type="text/css">
	.st0{fill:#FFFFFF;}
	.st1{fill:url(#SVGID_1_);}
	.st2{fill:#FFFFFF;}
</style>
<g>
	<g>
		<path class="st0" d="M787.65,211.76v231.75h-43.71V211.76H672.5v-37.1h186.21v37.1H787.65z"/>
		<path class="st0" d="M1064.91,443.51l-30.48-69.23H927.92l-31.22,69.23h-45.91l130.2-279.49L1111,443.51H1064.91z M944.08,337.92
			H1019c0,0-35.93-85.58-37.65-91.82C979.89,251.98,944.08,337.92,944.08,337.92z"/>
		<path class="st0" d="M1158.91,443.51V164.02l170.78,164.35c4.65,4.65,9.36,9.61,14.14,14.87c4.77,5.26,9.79,11.2,15.06,17.81
			V174.67h40.4v279.31l-174.27-167.29c-4.65-4.53-9.15-9.3-13.5-14.32c-4.34-5.02-8.48-10.28-12.39-15.79v186.94H1158.91z"/>
		<path class="st0" d="M1759.19,309.64c0,19.1-3.58,37.16-10.74,54.17s-17.6,32.2-31.31,45.54c-13.84,13.35-29.45,23.57-46.83,30.67
			c-17.39,7.1-35.63,10.65-54.72,10.65c-19.34,0-37.8-3.58-55.36-10.74c-17.57-7.16-33.09-17.35-46.55-30.58
			c-13.71-13.34-24.12-28.46-31.22-45.36c-7.1-16.89-10.65-35.01-10.65-54.36c0-19.22,3.55-37.34,10.65-54.36
			c7.1-17.01,17.51-32.25,31.22-45.72c13.71-13.34,29.26-23.51,46.64-30.48c17.38-6.98,35.81-10.47,55.27-10.47
			c19.34,0,37.68,3.49,55,10.47c17.32,6.98,32.84,17.14,46.55,30.48c13.71,13.59,24.15,28.92,31.31,46
			C1755.61,272.64,1759.19,290.67,1759.19,309.64z M1713.65,309.64c0-13.59-2.48-26.5-7.44-38.75
			c-4.96-12.24-12.09-23.14-21.39-32.68c-9.06-9.43-19.56-16.68-31.5-21.76c-11.94-5.08-24.52-7.62-37.74-7.62
			c-13.22,0-25.8,2.51-37.73,7.53c-11.94,5.02-22.56,12.3-31.86,21.85c-9.31,9.43-16.41,20.26-21.3,32.5
			c-4.9,12.24-7.35,25.22-7.35,38.93c0,13.59,2.45,26.45,7.35,38.56c4.89,12.12,11.99,22.95,21.3,32.5
			c9.3,9.55,19.89,16.83,31.77,21.85c11.87,5.02,24.48,7.53,37.83,7.53c13.1,0,25.55-2.51,37.37-7.53
			c11.81-5.02,22.43-12.3,31.86-21.85c9.3-9.55,16.44-20.41,21.39-32.59C1711.17,335.94,1713.65,323.11,1713.65,309.64z"/>
		<path class="st0" d="M1816.46,389.71l34.89-16.16c3.31,12,9.37,21.15,18.18,27.45c8.81,6.31,20.07,9.46,33.79,9.46
			c12.97,0,23.29-3.61,30.94-10.84c7.65-7.22,11.48-16.89,11.48-29.01c0-15.79-13.1-29.87-39.3-42.23
			c-3.67-1.84-6.49-3.18-8.45-4.04c-29.63-14.44-49.37-27.51-59.22-39.21c-9.86-11.69-14.78-25.98-14.78-42.88
			c0-21.91,7.44-39.66,22.31-53.26c14.88-13.59,34.37-20.38,58.49-20.38c19.83,0,36.42,3.82,49.77,11.48
			c13.34,7.65,22.59,18.64,27.73,32.96l-34.16,17.63c-5.39-8.45-11.29-14.63-17.72-18.55c-6.43-3.92-13.8-5.88-22.13-5.88
			c-11.75,0-21.09,3.06-28,9.18c-6.92,6.12-10.38,14.32-10.38,24.6c0,16.16,15.18,31.22,45.54,45.18c2.33,1.1,4.16,1.96,5.51,2.57
			c26.57,12.24,44.81,24.21,54.72,35.9c9.92,11.69,14.87,26.29,14.87,43.8c0,25.47-8.02,45.69-24.05,60.69
			c-16.04,15-37.71,22.5-65.01,22.5c-22.9,0-41.66-5.27-56.29-15.79C1830.57,424.35,1820.99,409.3,1816.46,389.71z"/>
		<path class="st0" d="M2060.86,443.51V174.67h43.7v99.16h132.22v-99.16h43.71v268.84h-43.71V312.95h-132.22v130.57H2060.86z"/>
		<path class="st0" d="M2365.48,443.51V174.67h43.71v268.84H2365.48z"/>
		<path class="st0" d="M2495.29,443.51V174.67H2539v268.84H2495.29z"/>
	</g>
	<g>
		<linearGradient id="SVGID_1_" gradientUnits="userSpaceOnUse" x1="545.8193" y1="35.7228" x2="74.4146" y2="576.8246">
			<stop  offset="0" style="stop-color:#C64EFF"/>
			<stop  offset="1" style="stop-color:#3300E4"/>
		</linearGradient>
		<path class="st1" d="M489.54,21.26H125.95C67.43,21.26,20,68.69,20,127.21v363.59c0,58.51,47.43,105.95,105.95,105.95h363.59
			c58.51,0,105.95-47.43,105.95-105.95V127.21C595.48,68.69,548.05,21.26,489.54,21.26z"/>
		<path class="st2" d="M472.34,491.01l-14.36-9.7c-2.39-1.6-5.65-1.6-7.84,0.27c-17.68,14.62-42.93,17.08-74.84,1.13
			c-28.91-13.96-63.8-94.97-84.54-185.36c-27.58-2.17-40.59-1.5-42.77-1.35c1.73-0.59,3.43-1.27,5.15-1.85
			c0.09-0.03,0.19-0.06,0.28-0.09c8.08-2.73,16.24-5.23,24.39-7.74c3.51-1.08,6.87-2.1,9.81-2.98c0-0.07,0-0.07,0-0.13
			c23.79-7.04,47.92-13.23,72.18-18.41c9.3-1.99,15.55-10.97,14.29-20.4l-11.03-79.75c-0.73-5.12-3.59-9.77-7.84-12.69
			c-4.25-2.86-9.5-3.85-14.42-2.66c-21.53,5.12-44.66,12.76-67.79,22.13c-0.73-17.21-0.47-33.76,0.86-49.12
			c0.66-7.58-4.65-14.36-12.23-15.49l-56.36-8.57c-8.97-1.4-17.01,5.78-16.62,14.82c0.93,23.2,4.12,56.49,10.1,94.58
			c-28.11,16.15-53.3,33.9-71.98,51.31c-5.72,5.38-7.38,13.82-4.05,21l18.21,39.68c3.12,6.71,9.77,10.63,16.68,10.63
			c2.53,0,5.05-0.46,7.44-1.6c17.81-7.98,35.89-15.42,54.17-22.33c24.79,95.24,66.4,192.34,131.53,228.9
			c15.49,8.71,32.17,11.17,47.39,11.17c22.86,0,43.93-8.31,60.28-24.59c6.51-6.51,11.9-13.96,16.02-21.93
			C476.06,496.79,475.2,493,472.34,491.01z M214.4,286.84c-18.88,7.11-37.55,14.75-55.96,23l-17.08-37.15
			c15.95-14.69,37.15-29.77,61.01-43.93c22.4-13.29,47.06-25.72,71.85-36.16c23.73-10.04,47.52-18.21,69.32-23.53l10.57,76.56
			c-23.59,5.12-47.06,11.1-70.32,17.94C260.39,270.49,237.19,278.26,214.4,286.84z"/>
	</g>
</g>
</svg>
